<?xml version="1.0" standalone="no"?><!DOCTYPE svg PUBLIC "-//W3C//DTD SVG 1.1//EN" "http://www.w3.org/Graphics/SVG/1.1/DTD/svg11.dtd"><svg t="1742051576846" class="icon" viewBox="0 0 1053 1024" version="1.1" xmlns="http://www.w3.org/2000/svg" p-id="1586" width="32.90625" height="32" xmlns:xlink="http://www.w3.org/1999/xlink"><path d="M1029.851429 181.394286L851.382857 26.331429l-23.405714-20.48c-2.925714-2.925714-2.925714-2.925714-5.851429-2.925715H251.611429c-35.108571-2.925714-61.44 26.331429-61.44 58.514286v403.748571H23.405714c-11.702857 0-23.405714 11.702857-23.405714 23.405715v310.125714c0 11.702857 11.702857 23.405714 23.405714 23.405714h166.765715v140.434286c0 32.182857 26.331429 61.44 61.44 61.44h722.651428c35.108571 0 61.44-29.257143 61.44-61.44v-760.685714c2.925714-8.777143 0-17.554286-5.851428-20.48z m-196.022858-114.102857L962.56 175.542857h-125.805714V67.291429zM201.874286 669.988571c-11.702857 2.925714-23.405714 5.851429-38.034286 5.851429H111.177143V760.685714H58.514286v-234.057143h105.325714c14.628571 0 26.331429 2.925714 38.034286 5.851429s17.554286 8.777143 26.331428 17.554286c5.851429 5.851429 11.702857 14.628571 14.628572 23.405714 2.925714 8.777143 5.851429 17.554286 5.851428 29.257143 0 8.777143-2.925714 17.554286-5.851428 26.331428-2.925714 8.777143-8.777143 17.554286-14.628572 23.405715-5.851429 8.777143-14.628571 14.628571-26.331428 17.554285z m792.868571 292.571429c0 11.702857-8.777143 20.48-20.48 20.48H251.611429c-11.702857 0-20.48-8.777143-20.48-20.48v-140.434286h462.262857c11.702857 0 23.405714-11.702857 23.405714-23.405714V488.594286c0-11.702857-11.702857-23.405714-23.405714-23.405715H231.131429V61.44c0-11.702857 8.777143-20.48 20.48-20.48h541.257142v155.062857c0 8.777143 5.851429 17.554286 11.702858 20.48 2.925714 0 5.851429 2.925714 8.777142 2.925714H994.742857v743.131429zM269.165714 760.685714v-234.057143h102.4c14.628571 0 29.257143 2.925714 40.96 5.851429 11.702857 5.851429 23.405714 11.702857 35.108572 20.48 8.777143 8.777143 17.554286 20.48 23.405714 35.108571 5.851429 14.628571 8.777143 32.182857 8.777143 49.737143 0 17.554286-2.925714 32.182857-5.851429 46.811429-5.851429 14.628571-11.702857 26.331429-20.48 38.034286-8.777143 11.702857-20.48 17.554286-32.182857 23.405714-14.628571 5.851429-29.257143 8.777143-46.811428 8.777143H269.165714z m389.12-137.508571v40.96h-99.474285V760.685714h-52.662858v-234.057143H672.914286v43.885715h-114.102857v52.662857h99.474285z" fill="#1296db" p-id="1587"></path><path d="M424.228571 646.582857c0-11.702857 0-23.405714-2.925714-32.182857-2.925714-8.777143-5.851429-17.554286-11.702857-23.405714-5.851429-5.851429-11.702857-11.702857-20.48-14.628572-8.777143-2.925714-20.48-5.851429-32.182857-5.851428H321.828571v146.285714h46.811429c8.777143 0 14.628571 0 20.48-2.925714 5.851429-2.925714 14.628571-5.851429 17.554286-11.702857 5.851429-5.851429 8.777143-11.702857 14.628571-20.48 2.925714-11.702857 2.925714-20.48 2.925714-35.108572zM181.394286 573.44c-2.925714-2.925714-8.777143-2.925714-14.628572-5.851429H111.177143v70.217143h58.514286c5.851429 0 11.702857-2.925714 14.628571-5.851428 2.925714-2.925714 8.777143-5.851429 8.777143-11.702857 2.925714-5.851429 2.925714-11.702857 2.925714-17.554286 0-8.777143 0-14.628571-2.925714-17.554286-2.925714-5.851429-5.851429-8.777143-11.702857-11.702857z" fill="#1296db" p-id="1588"></path></svg>